<svg id="Layer_1" data-name="Layer 1" xmlns="http://www.w3.org/2000/svg" viewBox="0 0 512 512"><defs><style>.cls-1{fill:#2b374f;}</style></defs><title>hat-outline</title><circle class="cls-1" cx="454.4" cy="319.99" r="12.8"/><circle class="cls-1" cx="416" cy="243.18" r="19.2"/><circle class="cls-1" cx="448" cy="134.38" r="12.8"/><circle class="cls-1" cx="32" cy="326.39" r="12.8"/><circle class="cls-1" cx="76.8" cy="281.59" r="19.2"/><circle class="cls-1" cx="89.6" cy="204.78" r="12.8"/><path class="cls-1" d="M393.15,357.57,379,310.71c-.05-.17-.12-.33-.18-.49L293.25,27.65a38.92,38.92,0,0,0-74.5,0L133.21,310.22c-.06.17-.13.33-.18.49l-14.17,46.85C50.19,370.75,0,394.69,0,428.8,0,483.42,128.78,512,256,512s256-28.58,256-83.2C512,394.7,461.81,370.75,393.15,357.57ZM256,352a19.2,19.2,0,1,1-19.2,19.2A19.22,19.22,0,0,1,256,352Zm115,20.74c-3.26,5.85-28.88,18-77.12,22.38a44.67,44.67,0,0,0-2.14-50.93c25.87-2.09,49.05-6.43,66.81-12.57ZM218.15,395.11c-48.22-4.41-73.83-16.52-77.12-22.37l12.45-41.13c17.76,6.14,40.94,10.48,66.8,12.57a44.67,44.67,0,0,0-2.14,50.93Zm25.1-360a13.32,13.32,0,0,1,25.5,0l82.35,272c-22.6,8.06-57.63,12.9-95.1,12.9s-72.5-4.84-95.1-12.9ZM256,486.4c-140.65,0-230.4-34.12-230.4-57.6,0-14.4,33.77-32.8,92.32-44.88C133,414,209.07,422.39,256,422.39S379,414,394.08,383.92C452.63,396,486.4,414.39,486.4,428.8,486.4,452.28,396.65,486.4,256,486.4Z"/></svg>